<svg xmlns="http://www.w3.org/2000/svg" viewBox="0 0 24 24">
 <style type="text/css">
   <![CDATA[
    .fill {fill:#A4A4A4}
   ]]>
  </style>  
<path fill="#111" class="fill" d="M8 2c1.3 0 2.4.8 2.8 2H22v2H10.8C10.4 7.2 9.3 8 8 8c-1.3 0-2.4-.8-2.8-2H2V4h3.2C5.6 2.8 6.7 2 8 2zm0 4c.6 0 1-.4 1-1s-.4-1-1-1-1 .4-1 1 .4 1 1 1zm0 10c1.3 0 2.4.8 2.8 2H22v2H10.8c-.4 1.2-1.5 2-2.8 2-1.3 0-2.4-.8-2.8-2H2v-2h3.2c.4-1.2 1.5-2 2.8-2zm0 4c.6 0 1-.4 1-1s-.4-1-1-1-1 .4-1 1 .4 1 1 1zm8-11c1.3 0 2.4.8 2.8 2H22v2h-3.2c-.4 1.2-1.5 2-2.8 2-1.3 0-2.4-.8-2.8-2H2v-2h11.2c.4-1.2 1.5-2 2.8-2zm0 4c.6 0 1-.4 1-1s-.4-1-1-1-1 .4-1 1 .4 1 1 1z"/>
</svg>